<svg width="40" height="40" viewBox="0 0 40 40" fill="none" xmlns="http://www.w3.org/2000/svg">
<path d="M30 5H10C8.15906 5 6.66667 6.49238 6.66667 8.33333V31.6667C6.66667 33.5076 8.15906 35 10 35H30C31.841 35 33.3333 33.5076 33.3333 31.6667V8.33333C33.3333 6.49238 31.841 5 30 5Z" stroke="#495371" stroke-width="4.16667" stroke-linecap="round" stroke-linejoin="round"/>
<path d="M25 11.6667H15C14.0795 11.6667 13.3333 12.4128 13.3333 13.3333V15C13.3333 15.9205 14.0795 16.6667 15 16.6667H25C25.9205 16.6667 26.6667 15.9205 26.6667 15V13.3333C26.6667 12.4128 25.9205 11.6667 25 11.6667Z" stroke="#495371" stroke-width="4.16667" stroke-linecap="round" stroke-linejoin="round"/>
<path d="M13.3333 23.3333V23.35" stroke="#495371" stroke-width="4.16667" stroke-linecap="round" stroke-linejoin="round"/>
<path d="M20 23.3333V23.35" stroke="#495371" stroke-width="4.16667" stroke-linecap="round" stroke-linejoin="round"/>
<path d="M26.6667 23.3333V23.35" stroke="#495371" stroke-width="4.16667" stroke-linecap="round" stroke-linejoin="round"/>
<path d="M13.3333 28.3333V28.35" stroke="#495371" stroke-width="4.16667" stroke-linecap="round" stroke-linejoin="round"/>
<path d="M20 28.3333V28.35" stroke="#495371" stroke-width="4.16667" stroke-linecap="round" stroke-linejoin="round"/>
<path d="M26.6667 28.3333V28.35" stroke="#495371" stroke-width="4.16667" stroke-linecap="round" stroke-linejoin="round"/>
</svg>
